<svg version="1.1" xmlns="http://www.w3.org/2000/svg" xmlns:xlink="http://www.w3.org/1999/xlink" width="2400" height="1600"><defs/><g transform="scale(2,2)"><g id="background-7bf8ff9c"><rect fill="white" stroke="none" x="0" y="0" width="1200" height="800" class="dcg-svg-background"/></g><g id="graphpaper-7bf8ff9c"><g id="axis-7bf8ff9c"><g id="yaxis-7bf8ff9c"><title>cos(x)</title><g><path fill="none" stroke="rgb(0,0,0)" class="dcg-svg-axis-line" paint-order="fill stroke markers" d=" M 600 4 L 600 796" stroke-opacity="0.9" stroke-miterlimit="10" stroke-width="2" stroke-dasharray=""/><g class="dcg-svg-axis-line"><path fill="rgb(0,0,0)" stroke="rgb(0,0,0)" class="dcg-svg-axis-line" paint-order="stroke fill markers" d=" M 600 798 L 595.8588952783597 782.545186779375 L 604.1411047216403 782.545186779375 L 600 798 L 595.8588952783597 782.545186779375" stroke-opacity="0.9" stroke-linejoin="round" stroke-miterlimit="10" stroke-width="2" stroke-dasharray="" fill-opacity="0.9"/></g><g class="dcg-svg-axis-line"><path fill="rgb(0,0,0)" stroke="rgb(0,0,0)" class="dcg-svg-axis-line" paint-order="stroke fill markers" d=" M 600 2 L 604.1411047216403 17.45481322062509 L 595.8588952783597 17.45481322062509 L 600 2 L 604.1411047216403 17.45481322062509" stroke-opacity="0.9" stroke-linejoin="round" stroke-miterlimit="10" stroke-width="2" stroke-dasharray="" fill-opacity="0.9"/></g></g></g><g id="xaxis-7bf8ff9c"><title>x</title><g><path fill="none" stroke="rgb(0,0,0)" class="dcg-svg-axis-line" paint-order="fill stroke markers" d=" M 4 400 L 1196 400" stroke-opacity="0.9" stroke-miterlimit="10" stroke-width="2" stroke-dasharray=""/><g class="dcg-svg-axis-line"><path fill="rgb(0,0,0)" stroke="rgb(0,0,0)" class="dcg-svg-axis-line" paint-order="stroke fill markers" d=" M 2 400 L 17.45481322062509 395.8588952783597 L 17.45481322062509 404.1411047216403 L 2 400 L 17.45481322062509 395.8588952783597" stroke-opacity="0.9" stroke-linejoin="round" stroke-miterlimit="10" stroke-width="2" stroke-dasharray="" fill-opacity="0.9"/></g><g class="dcg-svg-axis-line"><path fill="rgb(0,0,0)" stroke="rgb(0,0,0)" class="dcg-svg-axis-line" paint-order="stroke fill markers" d=" M 1198 400 L 1182.545186779375 404.1411047216403 L 1182.545186779375 395.8588952783597 L 1198 400 L 1182.545186779375 404.1411047216403" stroke-opacity="0.9" stroke-linejoin="round" stroke-miterlimit="10" stroke-width="2" stroke-dasharray="" fill-opacity="0.9"/></g></g></g><g><g class="dcg-svg-axis-value"><text fill="none" stroke="#ffffff" font-family="Arial" font-size="20px" font-style="normal" font-weight="normal" text-decoration="normal" x="589.4416666030884" y="420.44" text-anchor="middle" stroke-miterlimit="2" stroke-width="3" stroke-dasharray="">0</text><text fill="#000000" stroke="none" font-family="Arial" font-size="20px" font-style="normal" font-weight="normal" text-decoration="normal" x="589.4416666030884" y="420.44" text-anchor="middle">0</text></g><g><path fill="none" stroke="rgb(0,0,0)" class="dcg-svg-tickmark" paint-order="fill stroke markers" d=" M 0 396 L 0 404 M 150 396 L 150 404 M 300 396 L 300 404 M 450 396 L 450 404 M 750 396 L 750 404 M 900 396 L 900 404 M 1050 396 L 1050 404 M 1200 396 L 1200 404 M 596 782 L 604 782 M 596 686 L 604 686 M 596 591 L 604 591 M 596 495 L 604 495 M 596 305 L 604 305 M 596 209 L 604 209 M 596 114 L 604 114 M 596 18 L 604 18" stroke-opacity="0.9" stroke-miterlimit="2" stroke-width="2" stroke-dasharray=""/></g><g class="dcg-svg-axis-value dcg-svg-offcenter-axis-value"><text fill="none" stroke="#ffffff" font-family="Arial" font-size="20px" font-style="normal" font-weight="normal" text-decoration="normal" x="18.791666984558105" y="420.44" text-anchor="middle" stroke-miterlimit="2" stroke-width="3" stroke-dasharray="">-2π</text><text fill="#000000" stroke="none" font-family="Arial" font-size="20px" font-style="normal" font-weight="normal" text-decoration="normal" x="18.791666984558105" y="420.44" text-anchor="middle">-2π</text></g><g class="dcg-svg-axis-value"><text fill="none" stroke="#ffffff" font-family="Arial" font-size="20px" font-style="normal" font-weight="normal" text-decoration="normal" x="146.6666669845581" y="420.44" text-anchor="middle" stroke-miterlimit="2" stroke-width="3" stroke-dasharray="">-3π/2</text><text fill="#000000" stroke="none" font-family="Arial" font-size="20px" font-style="normal" font-weight="normal" text-decoration="normal" x="146.6666669845581" y="420.44" text-anchor="middle">-3π/2</text></g><g class="dcg-svg-axis-value"><text fill="none" stroke="#ffffff" font-family="Arial" font-size="20px" font-style="normal" font-weight="normal" text-decoration="normal" x="296.6666669845581" y="420.44" text-anchor="middle" stroke-miterlimit="2" stroke-width="3" stroke-dasharray="">-π</text><text fill="#000000" stroke="none" font-family="Arial" font-size="20px" font-style="normal" font-weight="normal" text-decoration="normal" x="296.6666669845581" y="420.44" text-anchor="middle">-π</text></g><g class="dcg-svg-axis-value"><text fill="none" stroke="#ffffff" font-family="Arial" font-size="20px" font-style="normal" font-weight="normal" text-decoration="normal" x="446.6666669845581" y="420.44" text-anchor="middle" stroke-miterlimit="2" stroke-width="3" stroke-dasharray="">-π/2</text><text fill="#000000" stroke="none" font-family="Arial" font-size="20px" font-style="normal" font-weight="normal" text-decoration="normal" x="446.6666669845581" y="420.44" text-anchor="middle">-π/2</text></g><g class="dcg-svg-axis-value"><text fill="none" stroke="#ffffff" font-family="Arial" font-size="20px" font-style="normal" font-weight="normal" text-decoration="normal" x="750" y="420.44" text-anchor="middle" stroke-miterlimit="2" stroke-width="3" stroke-dasharray="">π/2</text><text fill="#000000" stroke="none" font-family="Arial" font-size="20px" font-style="normal" font-weight="normal" text-decoration="normal" x="750" y="420.44" text-anchor="middle">π/2</text></g><g class="dcg-svg-axis-value"><text fill="none" stroke="#ffffff" font-family="Arial" font-size="20px" font-style="normal" font-weight="normal" text-decoration="normal" x="900" y="420.44" text-anchor="middle" stroke-miterlimit="2" stroke-width="3" stroke-dasharray="">π</text><text fill="#000000" stroke="none" font-family="Arial" font-size="20px" font-style="normal" font-weight="normal" text-decoration="normal" x="900" y="420.44" text-anchor="middle">π</text></g><g class="dcg-svg-axis-value"><text fill="none" stroke="#ffffff" font-family="Arial" font-size="20px" font-style="normal" font-weight="normal" text-decoration="normal" x="1050" y="420.44" text-anchor="middle" stroke-miterlimit="2" stroke-width="3" stroke-dasharray="">3π/2</text><text fill="#000000" stroke="none" font-family="Arial" font-size="20px" font-style="normal" font-weight="normal" text-decoration="normal" x="1050" y="420.44" text-anchor="middle">3π/2</text></g><g class="dcg-svg-axis-value dcg-svg-offcenter-axis-value"><text fill="none" stroke="#ffffff" font-family="Arial" font-size="20px" font-style="normal" font-weight="normal" text-decoration="normal" x="1184.541666984558" y="420.44" text-anchor="middle" stroke-miterlimit="2" stroke-width="3" stroke-dasharray="">2π</text><text fill="#000000" stroke="none" font-family="Arial" font-size="20px" font-style="normal" font-weight="normal" text-decoration="normal" x="1184.541666984558" y="420.44" text-anchor="middle">2π</text></g><g class="dcg-svg-axis-value"><text fill="none" stroke="#ffffff" font-family="Arial" font-size="20px" font-style="normal" font-weight="normal" text-decoration="normal" x="586.1083335876465" y="787.4118634205489" text-anchor="middle" stroke-miterlimit="2" stroke-width="3" stroke-dasharray="">-4</text><text fill="#000000" stroke="none" font-family="Arial" font-size="20px" font-style="normal" font-weight="normal" text-decoration="normal" x="586.1083335876465" y="787.4118634205489" text-anchor="middle">-4</text></g><g class="dcg-svg-axis-value"><text fill="none" stroke="#ffffff" font-family="Arial" font-size="20px" font-style="normal" font-weight="normal" text-decoration="normal" x="586.1083335876465" y="691.9188975654117" text-anchor="middle" stroke-miterlimit="2" stroke-width="3" stroke-dasharray="">-3</text><text fill="#000000" stroke="none" font-family="Arial" font-size="20px" font-style="normal" font-weight="normal" text-decoration="normal" x="586.1083335876465" y="691.9188975654117" text-anchor="middle">-3</text></g><g class="dcg-svg-axis-value"><text fill="none" stroke="#ffffff" font-family="Arial" font-size="20px" font-style="normal" font-weight="normal" text-decoration="normal" x="586.1083335876465" y="596.4259317102744" text-anchor="middle" stroke-miterlimit="2" stroke-width="3" stroke-dasharray="">-2</text><text fill="#000000" stroke="none" font-family="Arial" font-size="20px" font-style="normal" font-weight="normal" text-decoration="normal" x="586.1083335876465" y="596.4259317102744" text-anchor="middle">-2</text></g><g class="dcg-svg-axis-value"><text fill="none" stroke="#ffffff" font-family="Arial" font-size="20px" font-style="normal" font-weight="normal" text-decoration="normal" x="586.1083335876465" y="500.9329658551372" text-anchor="middle" stroke-miterlimit="2" stroke-width="3" stroke-dasharray="">-1</text><text fill="#000000" stroke="none" font-family="Arial" font-size="20px" font-style="normal" font-weight="normal" text-decoration="normal" x="586.1083335876465" y="500.9329658551372" text-anchor="middle">-1</text></g><g class="dcg-svg-axis-value"><text fill="none" stroke="#ffffff" font-family="Arial" font-size="20px" font-style="normal" font-weight="normal" text-decoration="normal" x="589.4416666030884" y="309.9470341448628" text-anchor="middle" stroke-miterlimit="2" stroke-width="3" stroke-dasharray="">1</text><text fill="#000000" stroke="none" font-family="Arial" font-size="20px" font-style="normal" font-weight="normal" text-decoration="normal" x="589.4416666030884" y="309.9470341448628" text-anchor="middle">1</text></g><g class="dcg-svg-axis-value"><text fill="none" stroke="#ffffff" font-family="Arial" font-size="20px" font-style="normal" font-weight="normal" text-decoration="normal" x="589.4416666030884" y="214.45406828972557" text-anchor="middle" stroke-miterlimit="2" stroke-width="3" stroke-dasharray="">2</text><text fill="#000000" stroke="none" font-family="Arial" font-size="20px" font-style="normal" font-weight="normal" text-decoration="normal" x="589.4416666030884" y="214.45406828972557" text-anchor="middle">2</text></g><g class="dcg-svg-axis-value"><text fill="none" stroke="#ffffff" font-family="Arial" font-size="20px" font-style="normal" font-weight="normal" text-decoration="normal" x="589.4416666030884" y="118.96110243458833" text-anchor="middle" stroke-miterlimit="2" stroke-width="3" stroke-dasharray="">3</text><text fill="#000000" stroke="none" font-family="Arial" font-size="20px" font-style="normal" font-weight="normal" text-decoration="normal" x="589.4416666030884" y="118.96110243458833" text-anchor="middle">3</text></g><g class="dcg-svg-axis-value"><text fill="none" stroke="#ffffff" font-family="Arial" font-size="20px" font-style="normal" font-weight="normal" text-decoration="normal" x="589.4416666030884" y="23.468136579451144" text-anchor="middle" stroke-miterlimit="2" stroke-width="3" stroke-dasharray="">4</text><text fill="#000000" stroke="none" font-family="Arial" font-size="20px" font-style="normal" font-weight="normal" text-decoration="normal" x="589.4416666030884" y="23.468136579451144" text-anchor="middle">4</text></g></g><g class="dcg-svg-axis-label"><text fill="none" stroke="#ffffff" font-family="Times" font-size="28px" font-style="italic" font-weight="normal" text-decoration="normal" x="1172.5666666030884" y="445" text-anchor="start" stroke-miterlimit="2" stroke-width="3" stroke-dasharray="">x</text><text fill="#000000" stroke="none" font-family="Times" font-size="28px" font-style="italic" font-weight="normal" text-decoration="normal" x="1172.5666666030884" y="445" text-anchor="start">x</text></g><g class="dcg-svg-axis-label" transform="translate(567.216667175293,80.3499984741211) rotate(-90,0,0)"><text fill="none" stroke="#ffffff" font-family="Arial" font-size="24px" font-style="normal" font-weight="normal" text-decoration="normal" x="0" y="0" text-anchor="start" stroke-miterlimit="2" stroke-width="3" stroke-dasharray="">cos(x)</text><text fill="#000000" stroke="none" font-family="Arial" font-size="24px" font-style="normal" font-weight="normal" text-decoration="normal" x="0" y="0" text-anchor="start">cos(x)</text></g></g></g><g id="expressions-7bf8ff9c"><g id="sketch-7bf8ff9c"><title>Expression 1</title><path fill="#c74440" stroke="none" paint-order="stroke fill markers" d="" fill-opacity="0.4"/><g><path fill="none" stroke="#c74440" class="dcg-svg-curve" paint-order="fill stroke markers" d=" M 0 304.5070341448628 L 0 304.5070341448628 L 7.031250000000114 304.7657764727276 L 14.0625 305.5406013092294 L 21.386718750000114 306.8919380156242 L 28.7109375 308.79073702814117 L 36.328125 311.3342005610839 L 44.238281250000114 314.5720418645791 L 52.734375 318.70156761420515 L 61.816406250000114 323.8261357628371 L 71.48437500000011 330.03667065156594 L 82.03125 337.6265880103121 L 93.75000000000006 346.94695070812855 L 107.22656250000011 358.64258674418505 L 123.33984375000011 373.6848296679007 L 145.8984375000001 395.8996984966327 L 181.05468750000006 430.5101965193608 L 197.4609375000001 445.5309725961926 L 211.23046875 457.12013996908644 L 223.24218750000006 466.2693930191755 L 233.7890625 473.4439587608614 L 243.45703125 479.23636116665693 L 252.5390625 483.9394845245976 L 261.03515625 487.6530674248174 L 268.9453125 490.48775848787716 L 276.56250000000006 492.63116133972255 L 283.88671875 494.13672788301784 L 291.2109375 495.0887837094185 L 298.2421875 495.47678760835055 L 305.27343750000006 495.34739452287397 L 312.30468749999994 494.70130564532985 L 319.3359375 493.5420221873245 L 326.66015625 491.7955246087902 L 334.27734375000006 489.4067853864286 L 342.18750000000006 486.3246187016466 L 350.39062500000006 482.50333044938407 L 359.1796875 477.73474343745136 L 368.5546875 471.9240412836118 L 378.80859375 464.7776575064307 L 390.234375 455.9395748001003 L 403.125 445.0150724939481 L 418.359375 431.06484462177565 L 437.98828125 411.9800684472756 L 486.03515625 364.81400958851196 L 501.5625 350.90680420272435 L 514.74609375 340.10186380034935 L 526.171875 331.6527407397031 L 536.71875 324.7184615046331 L 546.38671875 319.1660696869664 L 555.17578125 314.83548558977566 L 563.37890625 311.44340200273246 L 571.2890625 308.79073702814117 L 578.90625 306.8273098114461 L 586.23046875 305.4980584768946 L 593.26171875 304.7446725786858 L 600.29296875 304.5074835529442 L 607.32421875 304.78777674755105 L 614.35546875 305.5840332293993 L 621.6796875 306.95744258834156 L 629.00390625 308.8779290957335 L 636.62109375 311.44340200273246 L 644.53125 314.70336230495786 L 653.02734375 318.85563836261065 L 662.109375 324.0031736419258 L 671.77734375 330.2363944230926 L 682.32421875 337.84871973271134 L 694.04296875 347.19079461672595 L 707.51953125 358.9068480108302 L 723.6328125 373.9665782126368 L 746.19140625 396.1924158873196 L 781.0546875 430.51019651936076 L 797.4609375 445.53097259619256 L 811.23046875 457.12013996908644 L 823.2421875 466.2693930191754 L 833.7890625 473.4439587608614 L 843.45703125 479.23636116665693 L 852.5390625 483.9394845245976 L 861.03515625 487.6530674248174 L 868.9453125 490.48775848787716 L 876.5625 492.63116133972255 L 883.88671875 494.13672788301784 L 891.2109375 495.0887837094185 L 898.2421875 495.47678760835055 L 905.2734375 495.34739452287397 L 912.3046875 494.70130564532985 L 919.3359375 493.5420221873245 L 926.66015625 491.7955246087902 L 934.27734375 489.4067853864286 L 942.1875 486.3246187016466 L 950.390625 482.50333044938407 L 959.1796875 477.73474343745136 L 968.5546875 471.9240412836118 L 978.80859375 464.7776575064307 L 990.234375 455.9395748001003 L 1003.125 445.01507249394814 L 1018.359375 431.06484462177565 L 1037.98828125 411.9800684472757 L 1086.03515625 364.8140095885119 L 1101.5625 350.90680420272435 L 1114.74609375 340.10186380034935 L 1126.171875 331.6527407397031 L 1136.71875 324.7184615046331 L 1146.38671875 319.16606968696647 L 1155.17578125 314.83548558977566 L 1163.37890625 311.44340200273246 L 1171.2890625 308.79073702814117 L 1178.90625 306.8273098114462 L 1186.23046875 305.4980584768946 L 1193.26171875 304.7446725786858 L 1200 304.5070341448628" stroke-linecap="round" stroke-linejoin="round" stroke-miterlimit="10" stroke-width="5" stroke-dasharray=""/></g></g></g><g id="labels-7bf8ff9c"/><g id="labels-7bf8ff9c"/></g></svg>