<svg version="1.1" xmlns="http://www.w3.org/2000/svg" xmlns:xlink="http://www.w3.org/1999/xlink" width="2400" height="1600"><defs/><g transform="scale(2,2)"><g id="background-9d990eb7"><rect fill="white" stroke="none" x="0" y="0" width="1200" height="800" class="dcg-svg-background"/></g><g id="graphpaper-9d990eb7"><g id="axis-9d990eb7"><g id="yaxis-9d990eb7"><title>sin(x)</title><g><path fill="none" stroke="rgb(0,0,0)" class="dcg-svg-axis-line" paint-order="fill stroke markers" d=" M 600 4 L 600 796" stroke-opacity="0.9" stroke-miterlimit="10" stroke-width="2" stroke-dasharray=""/><g class="dcg-svg-axis-line"><path fill="rgb(0,0,0)" stroke="rgb(0,0,0)" class="dcg-svg-axis-line" paint-order="stroke fill markers" d=" M 600 798 L 595.8588952783597 782.545186779375 L 604.1411047216403 782.545186779375 L 600 798 L 595.8588952783597 782.545186779375" stroke-opacity="0.9" stroke-linejoin="round" stroke-miterlimit="10" stroke-width="2" stroke-dasharray="" fill-opacity="0.9"/></g><g class="dcg-svg-axis-line"><path fill="rgb(0,0,0)" stroke="rgb(0,0,0)" class="dcg-svg-axis-line" paint-order="stroke fill markers" d=" M 600 2 L 604.1411047216403 17.45481322062509 L 595.8588952783597 17.45481322062509 L 600 2 L 604.1411047216403 17.45481322062509" stroke-opacity="0.9" stroke-linejoin="round" stroke-miterlimit="10" stroke-width="2" stroke-dasharray="" fill-opacity="0.9"/></g></g></g><g id="xaxis-9d990eb7"><title>x</title><g><path fill="none" stroke="rgb(0,0,0)" class="dcg-svg-axis-line" paint-order="fill stroke markers" d=" M 4 400 L 1196 400" stroke-opacity="0.9" stroke-miterlimit="10" stroke-width="2" stroke-dasharray=""/><g class="dcg-svg-axis-line"><path fill="rgb(0,0,0)" stroke="rgb(0,0,0)" class="dcg-svg-axis-line" paint-order="stroke fill markers" d=" M 2 400 L 17.45481322062509 395.8588952783597 L 17.45481322062509 404.1411047216403 L 2 400 L 17.45481322062509 395.8588952783597" stroke-opacity="0.9" stroke-linejoin="round" stroke-miterlimit="10" stroke-width="2" stroke-dasharray="" fill-opacity="0.9"/></g><g class="dcg-svg-axis-line"><path fill="rgb(0,0,0)" stroke="rgb(0,0,0)" class="dcg-svg-axis-line" paint-order="stroke fill markers" d=" M 1198 400 L 1182.545186779375 404.1411047216403 L 1182.545186779375 395.8588952783597 L 1198 400 L 1182.545186779375 404.1411047216403" stroke-opacity="0.9" stroke-linejoin="round" stroke-miterlimit="10" stroke-width="2" stroke-dasharray="" fill-opacity="0.9"/></g></g></g><g><g class="dcg-svg-axis-value"><text fill="none" stroke="#ffffff" font-family="Arial" font-size="20px" font-style="normal" font-weight="normal" text-decoration="normal" x="589.4416666030884" y="420.44" text-anchor="middle" stroke-miterlimit="2" stroke-width="3" stroke-dasharray="">0</text><text fill="#000000" stroke="none" font-family="Arial" font-size="20px" font-style="normal" font-weight="normal" text-decoration="normal" x="589.4416666030884" y="420.44" text-anchor="middle">0</text></g><g><path fill="none" stroke="rgb(0,0,0)" class="dcg-svg-tickmark" paint-order="fill stroke markers" d=" M 0 396 L 0 404 M 150 396 L 150 404 M 300 396 L 300 404 M 450 396 L 450 404 M 750 396 L 750 404 M 900 396 L 900 404 M 1050 396 L 1050 404 M 1200 396 L 1200 404 M 596 782 L 604 782 M 596 686 L 604 686 M 596 591 L 604 591 M 596 495 L 604 495 M 596 305 L 604 305 M 596 209 L 604 209 M 596 114 L 604 114 M 596 18 L 604 18" stroke-opacity="0.9" stroke-miterlimit="2" stroke-width="2" stroke-dasharray=""/></g><g class="dcg-svg-axis-value dcg-svg-offcenter-axis-value"><text fill="none" stroke="#ffffff" font-family="Arial" font-size="20px" font-style="normal" font-weight="normal" text-decoration="normal" x="18.791666984558105" y="420.44" text-anchor="middle" stroke-miterlimit="2" stroke-width="3" stroke-dasharray="">-2π</text><text fill="#000000" stroke="none" font-family="Arial" font-size="20px" font-style="normal" font-weight="normal" text-decoration="normal" x="18.791666984558105" y="420.44" text-anchor="middle">-2π</text></g><g class="dcg-svg-axis-value"><text fill="none" stroke="#ffffff" font-family="Arial" font-size="20px" font-style="normal" font-weight="normal" text-decoration="normal" x="146.6666669845581" y="420.44" text-anchor="middle" stroke-miterlimit="2" stroke-width="3" stroke-dasharray="">-3π/2</text><text fill="#000000" stroke="none" font-family="Arial" font-size="20px" font-style="normal" font-weight="normal" text-decoration="normal" x="146.6666669845581" y="420.44" text-anchor="middle">-3π/2</text></g><g class="dcg-svg-axis-value"><text fill="none" stroke="#ffffff" font-family="Arial" font-size="20px" font-style="normal" font-weight="normal" text-decoration="normal" x="296.6666669845581" y="420.44" text-anchor="middle" stroke-miterlimit="2" stroke-width="3" stroke-dasharray="">-π</text><text fill="#000000" stroke="none" font-family="Arial" font-size="20px" font-style="normal" font-weight="normal" text-decoration="normal" x="296.6666669845581" y="420.44" text-anchor="middle">-π</text></g><g class="dcg-svg-axis-value"><text fill="none" stroke="#ffffff" font-family="Arial" font-size="20px" font-style="normal" font-weight="normal" text-decoration="normal" x="446.6666669845581" y="420.44" text-anchor="middle" stroke-miterlimit="2" stroke-width="3" stroke-dasharray="">-π/2</text><text fill="#000000" stroke="none" font-family="Arial" font-size="20px" font-style="normal" font-weight="normal" text-decoration="normal" x="446.6666669845581" y="420.44" text-anchor="middle">-π/2</text></g><g class="dcg-svg-axis-value"><text fill="none" stroke="#ffffff" font-family="Arial" font-size="20px" font-style="normal" font-weight="normal" text-decoration="normal" x="750" y="420.44" text-anchor="middle" stroke-miterlimit="2" stroke-width="3" stroke-dasharray="">π/2</text><text fill="#000000" stroke="none" font-family="Arial" font-size="20px" font-style="normal" font-weight="normal" text-decoration="normal" x="750" y="420.44" text-anchor="middle">π/2</text></g><g class="dcg-svg-axis-value"><text fill="none" stroke="#ffffff" font-family="Arial" font-size="20px" font-style="normal" font-weight="normal" text-decoration="normal" x="900" y="420.44" text-anchor="middle" stroke-miterlimit="2" stroke-width="3" stroke-dasharray="">π</text><text fill="#000000" stroke="none" font-family="Arial" font-size="20px" font-style="normal" font-weight="normal" text-decoration="normal" x="900" y="420.44" text-anchor="middle">π</text></g><g class="dcg-svg-axis-value"><text fill="none" stroke="#ffffff" font-family="Arial" font-size="20px" font-style="normal" font-weight="normal" text-decoration="normal" x="1050" y="420.44" text-anchor="middle" stroke-miterlimit="2" stroke-width="3" stroke-dasharray="">3π/2</text><text fill="#000000" stroke="none" font-family="Arial" font-size="20px" font-style="normal" font-weight="normal" text-decoration="normal" x="1050" y="420.44" text-anchor="middle">3π/2</text></g><g class="dcg-svg-axis-value dcg-svg-offcenter-axis-value"><text fill="none" stroke="#ffffff" font-family="Arial" font-size="20px" font-style="normal" font-weight="normal" text-decoration="normal" x="1184.541666984558" y="420.44" text-anchor="middle" stroke-miterlimit="2" stroke-width="3" stroke-dasharray="">2π</text><text fill="#000000" stroke="none" font-family="Arial" font-size="20px" font-style="normal" font-weight="normal" text-decoration="normal" x="1184.541666984558" y="420.44" text-anchor="middle">2π</text></g><g class="dcg-svg-axis-value"><text fill="none" stroke="#ffffff" font-family="Arial" font-size="20px" font-style="normal" font-weight="normal" text-decoration="normal" x="586.1083335876465" y="787.4118634205489" text-anchor="middle" stroke-miterlimit="2" stroke-width="3" stroke-dasharray="">-4</text><text fill="#000000" stroke="none" font-family="Arial" font-size="20px" font-style="normal" font-weight="normal" text-decoration="normal" x="586.1083335876465" y="787.4118634205489" text-anchor="middle">-4</text></g><g class="dcg-svg-axis-value"><text fill="none" stroke="#ffffff" font-family="Arial" font-size="20px" font-style="normal" font-weight="normal" text-decoration="normal" x="586.1083335876465" y="691.9188975654117" text-anchor="middle" stroke-miterlimit="2" stroke-width="3" stroke-dasharray="">-3</text><text fill="#000000" stroke="none" font-family="Arial" font-size="20px" font-style="normal" font-weight="normal" text-decoration="normal" x="586.1083335876465" y="691.9188975654117" text-anchor="middle">-3</text></g><g class="dcg-svg-axis-value"><text fill="none" stroke="#ffffff" font-family="Arial" font-size="20px" font-style="normal" font-weight="normal" text-decoration="normal" x="586.1083335876465" y="596.4259317102744" text-anchor="middle" stroke-miterlimit="2" stroke-width="3" stroke-dasharray="">-2</text><text fill="#000000" stroke="none" font-family="Arial" font-size="20px" font-style="normal" font-weight="normal" text-decoration="normal" x="586.1083335876465" y="596.4259317102744" text-anchor="middle">-2</text></g><g class="dcg-svg-axis-value"><text fill="none" stroke="#ffffff" font-family="Arial" font-size="20px" font-style="normal" font-weight="normal" text-decoration="normal" x="586.1083335876465" y="500.9329658551372" text-anchor="middle" stroke-miterlimit="2" stroke-width="3" stroke-dasharray="">-1</text><text fill="#000000" stroke="none" font-family="Arial" font-size="20px" font-style="normal" font-weight="normal" text-decoration="normal" x="586.1083335876465" y="500.9329658551372" text-anchor="middle">-1</text></g><g class="dcg-svg-axis-value"><text fill="none" stroke="#ffffff" font-family="Arial" font-size="20px" font-style="normal" font-weight="normal" text-decoration="normal" x="589.4416666030884" y="309.9470341448628" text-anchor="middle" stroke-miterlimit="2" stroke-width="3" stroke-dasharray="">1</text><text fill="#000000" stroke="none" font-family="Arial" font-size="20px" font-style="normal" font-weight="normal" text-decoration="normal" x="589.4416666030884" y="309.9470341448628" text-anchor="middle">1</text></g><g class="dcg-svg-axis-value"><text fill="none" stroke="#ffffff" font-family="Arial" font-size="20px" font-style="normal" font-weight="normal" text-decoration="normal" x="589.4416666030884" y="214.45406828972557" text-anchor="middle" stroke-miterlimit="2" stroke-width="3" stroke-dasharray="">2</text><text fill="#000000" stroke="none" font-family="Arial" font-size="20px" font-style="normal" font-weight="normal" text-decoration="normal" x="589.4416666030884" y="214.45406828972557" text-anchor="middle">2</text></g><g class="dcg-svg-axis-value"><text fill="none" stroke="#ffffff" font-family="Arial" font-size="20px" font-style="normal" font-weight="normal" text-decoration="normal" x="589.4416666030884" y="118.96110243458833" text-anchor="middle" stroke-miterlimit="2" stroke-width="3" stroke-dasharray="">3</text><text fill="#000000" stroke="none" font-family="Arial" font-size="20px" font-style="normal" font-weight="normal" text-decoration="normal" x="589.4416666030884" y="118.96110243458833" text-anchor="middle">3</text></g><g class="dcg-svg-axis-value"><text fill="none" stroke="#ffffff" font-family="Arial" font-size="20px" font-style="normal" font-weight="normal" text-decoration="normal" x="589.4416666030884" y="23.468136579451144" text-anchor="middle" stroke-miterlimit="2" stroke-width="3" stroke-dasharray="">4</text><text fill="#000000" stroke="none" font-family="Arial" font-size="20px" font-style="normal" font-weight="normal" text-decoration="normal" x="589.4416666030884" y="23.468136579451144" text-anchor="middle">4</text></g></g><g class="dcg-svg-axis-label"><text fill="none" stroke="#ffffff" font-family="Times" font-size="28px" font-style="italic" font-weight="normal" text-decoration="normal" x="1172.5666666030884" y="445" text-anchor="start" stroke-miterlimit="2" stroke-width="3" stroke-dasharray="">x</text><text fill="#000000" stroke="none" font-family="Times" font-size="28px" font-style="italic" font-weight="normal" text-decoration="normal" x="1172.5666666030884" y="445" text-anchor="start">x</text></g><g class="dcg-svg-axis-label" transform="translate(567.216667175293,73.68333435058594) rotate(-90,0,0)"><text fill="none" stroke="#ffffff" font-family="Arial" font-size="24px" font-style="normal" font-weight="normal" text-decoration="normal" x="0" y="0" text-anchor="start" stroke-miterlimit="2" stroke-width="3" stroke-dasharray="">sin(x)</text><text fill="#000000" stroke="none" font-family="Arial" font-size="24px" font-style="normal" font-weight="normal" text-decoration="normal" x="0" y="0" text-anchor="start">sin(x)</text></g></g></g><g id="expressions-9d990eb7"><g id="sketch-9d990eb7"><title>Expression 1</title><path fill="#c74440" stroke="none" paint-order="stroke fill markers" d="" fill-opacity="0.4"/><g><path fill="none" stroke="#c74440" class="dcg-svg-curve" paint-order="fill stroke markers" d=" M 0 400 L 0 400 L 30.46875 370.04560027470865 L 46.875 354.98492750605186 L 60.64453125 343.35048870559973 L 72.65625 334.15372830569055 L 83.49609375 326.7436300763656 L 93.1640625 320.92752276668557 L 102.24609375000011 316.2005975659015 L 110.74218749999994 312.4635978308406 L 118.65234374999994 309.6062713284963 L 126.26953125000006 307.44046008807186 L 133.59375 305.9129157375227 L 140.9179687500001 304.9385902063632 L 147.94921875 304.52905431178556 L 154.98046875000006 304.63688374374516 L 162.0117187500001 305.26149416520764 L 169.04296875 306.3995007581811 L 176.36718750000006 308.12417359363974 L 183.98437500000006 310.49071774074446 L 191.89453125 313.5505274736685 L 200.09765625000006 317.3495370475632 L 208.88671874999994 322.09546232470365 L 218.26171875000006 327.8835807022665 L 228.51562499999994 335.0073921565465 L 239.94140625 343.82325020236766 L 252.83203125 354.72676439046177 L 268.06640625000006 368.65826861378184 L 287.69531250000006 387.7293342935187 L 336.328125 435.45818012346814 L 351.5625 449.09319579727565 L 364.74609375 459.89813619965065 L 376.17187500000006 468.34725926029694 L 386.71875 475.2815384953669 L 396.38671875 480.8339303130336 L 405.17578125000006 485.16451441022434 L 413.37890625 488.55659799726754 L 421.28906250000006 491.20926297185883 L 428.90625 493.1726901885539 L 436.23046875 494.5019415231054 L 443.26171875 495.2553274213142 L 450.29296875 495.4925164470558 L 457.32421875 495.21222325244895 L 464.35546875 494.4159667706007 L 471.6796875 493.04255741165844 L 479.00390625 491.1220709042665 L 486.62109375000006 488.55659799726754 L 494.53125 485.29663769504214 L 503.02734375 481.14436163738935 L 512.109375 475.9968263580742 L 521.77734375 469.7636055769074 L 532.32421875 462.15128026728866 L 544.04296875 452.80920538327405 L 557.51953125 441.0931519891698 L 573.6328125 426.0334217873632 L 596.19140625 403.8075841126804 L 631.0546875 369.48980348063924 L 647.4609375 354.4690274038075 L 661.23046875 342.87986003091356 L 673.2421875 333.7306069808246 L 683.7890625 326.5560412391386 L 693.45703125 320.76363883334307 L 702.5390625 316.0605154754023 L 711.03515625 312.3469325751826 L 718.9453125 309.51224151212284 L 726.5625 307.36883866027745 L 733.88671875 305.86327211698216 L 741.2109375 304.9112162905815 L 748.2421875 304.52321239164945 L 755.2734375 304.65260547712603 L 762.3046875 305.29869435467015 L 769.3359375 306.4579778126755 L 776.66015625 308.2044753912098 L 784.27734375 310.5932146135714 L 792.1875 313.6753812983534 L 800.390625 317.49666955061593 L 809.1796875 322.26525656254864 L 818.5546875 328.0759587163882 L 828.80859375 335.2223424935693 L 840.234375 344.0604251998997 L 853.125 354.9849275060519 L 868.359375 368.93515537822435 L 887.98828125 388.01993155272436 L 936.03515625 435.1859904114881 L 951.5625 449.09319579727565 L 964.74609375 459.89813619965065 L 976.171875 468.3472592602969 L 986.71875 475.2815384953669 L 996.38671875 480.8339303130336 L 1005.17578125 485.16451441022434 L 1013.37890625 488.55659799726754 L 1021.2890625 491.20926297185883 L 1028.90625 493.1726901885538 L 1036.23046875 494.5019415231054 L 1043.26171875 495.2553274213142 L 1050.29296875 495.4925164470558 L 1057.32421875 495.21222325244895 L 1064.35546875 494.4159667706007 L 1071.6796875 493.04255741165844 L 1079.00390625 491.1220709042665 L 1086.62109375 488.5565979972676 L 1094.53125 485.2966376950422 L 1103.02734375 481.14436163738935 L 1112.109375 475.99682635807426 L 1121.77734375 469.7636055769075 L 1132.32421875 462.15128026728866 L 1144.04296875 452.809205383274 L 1157.51953125 441.09315198916994 L 1173.6328125 426.0334217873633 L 1196.19140625 403.8075841126805 L 1200 400" stroke-linecap="round" stroke-linejoin="round" stroke-miterlimit="10" stroke-width="5" stroke-dasharray=""/></g></g></g><g id="labels-9d990eb7"/><g id="labels-9d990eb7"/></g></svg>